# xmcd
#
# Track frame offsets: 
#        150
#        13820
#        53562
#        69605
#        94720
#        148130
#        162287
#
# Disc length: 2489 seconds
#
# Revision: 16
# Processed by: cddbd v1.5.2PL0 Copyright (c) Steve Scherf et al.
# Submitted via: ExactAudioCopyFreeDBPlugin 1.0
#
DISCID=5b09b707
DTITLE=Hannes Wader - 7 Lieder (1990)
DYEAR=1972
DGENRE=Folk
TTITLE0=Heute hier, morgen dort (Indian Summer)
TTITLE1=Langeweile
TTITLE2=Schon so lang'  (So long)
TTITLE3=Unterwegs nach Süden
TTITLE4=Der Tankerkönig
TTITLE5=Rohr im Wind
TTITLE6=Kokain
EXTD=
EXTT0=
EXTT1=
EXTT2=
EXTT3=
EXTT4=
EXTT5=
EXTT6=
PLAYORDER=
